<?xml version="1.0" standalone="no"?>
<!DOCTYPE svg PUBLIC "-//W3C//DTD SVG 20010904//EN"
 "http://www.w3.org/TR/2001/REC-SVG-20010904/DTD/svg10.dtd">
<svg version="1.0" xmlns="http://www.w3.org/2000/svg"
 width="500.000000pt" height="500.000000pt" viewBox="0 0 500.000000 500.000000"
 preserveAspectRatio="xMidYMid meet">

<g transform="translate(0.000000,500.000000) scale(0.100000,-0.100000)"
fill="#000000" stroke="none">
<path d="M1333 4361 c-84 -21 -176 -100 -221 -190 l-27 -56 0 -1610 0 -1610
27 -57 c34 -73 103 -142 176 -176 l57 -27 1115 0 1115 0 48 22 c98 45 178 135
205 229 9 31 12 372 12 1343 l0 1301 -21 48 c-17 36 -103 128 -373 398 -193
193 -367 360 -386 370 -33 18 -72 19 -865 21 -456 0 -844 -2 -862 -6z m1577
-391 c5 -224 7 -237 30 -285 31 -64 97 -130 158 -158 44 -20 64 -22 301 -24
168 -2 259 -7 268 -14 11 -10 13 -231 13 -1276 0 -1224 -1 -1265 -19 -1301
-25 -48 -66 -87 -113 -106 -33 -14 -160 -16 -1081 -16 -1147 0 -1097 -3 -1165
61 -17 16 -40 44 -50 62 -16 30 -17 125 -17 1592 l0 1560 23 40 c25 41 43 57
96 87 29 16 90 17 791 15 l760 -2 5 -235z m401 -77 c131 -130 239 -241 239
-246 0 -4 -82 -7 -183 -5 -181 3 -184 3 -225 31 -73 48 -82 79 -82 282 0 96 3
175 6 175 3 0 114 -107 245 -237z"/>
<path d="M1640 3131 c-41 -13 -104 -56 -134 -91 -64 -76 -61 -51 -64 -562 -3
-459 -3 -467 18 -488 24 -24 57 -26 88 -4 l22 15 0 439 c0 316 3 447 12 467
16 39 68 93 89 93 10 0 21 5 24 10 9 15 98 12 136 -4 38 -16 80 -58 97 -98 7
-18 11 -132 12 -345 1 -354 -1 -346 69 -346 73 0 71 -8 71 357 l0 324 33 43
c17 23 39 45 47 49 8 4 25 12 37 18 30 16 118 15 146 0 36 -21 78 -61 93 -90
11 -22 14 -108 14 -472 l0 -445 27 -21 c50 -39 113 -4 113 62 0 21 2 38 5 38
3 0 22 -16 42 -36 130 -123 386 -114 513 19 64 66 83 117 88 235 3 70 1 107
-8 116 -19 24 -68 30 -95 12 -23 -15 -25 -23 -25 -89 0 -91 -10 -127 -51 -178
-97 -123 -327 -100 -380 38 -5 13 -9 174 -9 358 l0 333 33 43 c44 59 106 88
183 89 136 0 224 -82 224 -210 0 -57 24 -90 65 -90 42 0 65 33 65 93 0 124
-61 226 -170 286 -64 35 -67 36 -180 36 -106 0 -119 -2 -171 -28 -52 -26 -105
-71 -144 -122 -16 -20 -16 -20 -28 0 -24 40 -103 113 -142 131 -31 15 -63 19
-140 19 -109 0 -167 -19 -215 -70 -29 -31 -34 -31 -79 3 -78 59 -100 66 -206
69 -55 1 -111 -1 -125 -6z"/>
<path d="M3367 3112 c-15 -17 -17 -71 -17 -565 l0 -546 22 -15 c30 -21 71 -20
99 3 l23 18 -1 542 c-1 504 -2 543 -18 561 -24 26 -86 27 -108 2z"/>
<path d="M730 3334 c-54 -23 -108 -82 -130 -141 -18 -48 -20 -78 -20 -282 0
-246 -6 -283 -52 -316 -13 -8 -40 -18 -61 -22 -42 -6 -50 -23 -45 -94 3 -43 4
-44 49 -59 101 -33 103 -38 109 -335 5 -238 6 -252 28 -295 33 -63 59 -89 117
-116 54 -26 133 -32 153 -12 16 16 16 100 0 116 -7 7 -22 12 -34 12 -13 0 -38
15 -57 33 -48 45 -57 98 -57 340 0 226 -3 239 -77 303 l-36 32 37 32 c69 61
70 68 76 335 5 217 7 244 26 279 13 26 34 46 60 59 21 10 46 22 54 26 19 10
26 87 9 107 -15 19 -104 18 -149 -2z"/>
<path d="M4063 3339 c-16 -17 -17 -91 -1 -107 7 -7 18 -12 26 -12 32 0 80 -33
100 -69 21 -37 22 -52 22 -265 0 -256 6 -283 80 -350 l38 -34 -47 -49 c-65
-67 -71 -98 -71 -348 0 -186 -2 -210 -20 -245 -20 -40 -63 -70 -98 -70 -29 0
-42 -21 -42 -70 0 -57 12 -70 68 -70 74 0 123 20 174 72 72 74 80 109 79 356
0 114 3 225 8 246 12 50 40 77 99 96 l47 15 0 65 0 64 -46 13 c-59 17 -95 52
-103 101 -3 20 -6 137 -6 259 l0 221 -33 63 c-43 85 -101 122 -196 127 -45 2
-70 0 -78 -9z"/>
</g>
</svg>
